<svg version="1.2" xmlns="http://www.w3.org/2000/svg" viewBox="0 0 400 300" width="400" height="300">
	<title>Novo Projeto</title>
	<style>
		.s0 { fill: #ffffff } 
	</style>
	<path id="How can we help?       " class="s0" aria-label="How can we help?






"  d="m35.1 119.2h-11.9v0.2l2.2 1.1v9.8h-6.1v-9.8l2.1-1.1v-0.2h-11.9v0.2l2.2 1.1v21.2l-2.2 1.1v0.2h11.9v-0.2l-2.1-1.1v-10.7h6.1v10.7l-2.2 1.1v0.2h11.9v-0.2l-2.1-1.1v-21.2l2.1-1.1zm8.8 24.1c6 0 11.2-4.8 11.2-10.6 0-4.1-3-7.1-7.9-7.1-6 0-11.1 4.9-11.1 10.7 0 4.2 3.1 7 7.8 7zm-0.2-0.5c-0.7 0-1.1-1.2-1.1-3.2 0-3.5 2.5-13.5 4.7-13.5 0.6 0 1.1 1.1 1.1 2.9 0 3.2-2.3 13.8-4.7 13.8zm35.4-16.7l3.2 1.2-3.2 7.2-3.6-7.2 1.5-1.2v-0.1h-10.7v0.1l1.7 1.2 1.6 3.3-1.7 3.9-3.6-7.2 1.5-1.2v-0.1h-10.7v0.1l1.6 1.2 7.9 16h0.2l5.2-11.9 5.8 11.9h0.2l7-16 2.3-1.2v-0.1h-6.2zm27.4 11.4c-0.7 0.9-1.8 1.6-3.1 1.6-3.1 0-6-2.9-6-8.1 0-3.4 1.2-4.8 2.1-4.8 1 0 2.2 1.2 6.1 5.9h0.2l-1.1-7.2h-0.1l-1.6 1.5c-1.2-0.6-2.5-0.8-3.7-0.8-5.1 0-8.6 3.7-8.6 8.9 0 5.3 3.7 8.7 8.7 8.7 3.4 0 6.4-2.4 7.2-5.7zm17.6-6.5c0-3.4-2-5.4-5.3-5.4-2.4 0-4.6 1.1-6.2 2.1l-2.9-2.8h-0.2l-1 7.3h0.2c2.5-3 5-4.8 6.7-4.8 1.3 0 2.2 1.2 2.2 3.9v1.1c-8.6 2.3-10.7 4.7-10.7 7.3 0 2 1.7 3.6 4.4 3.6 2.5 0 4.8-1.8 6.3-3.9v3.5h8.2v-0.1l-1.7-1.2zm-8.4 8.6c-1.1 0-1.9-0.7-1.9-2 0-2.1 1.4-3.4 3.8-4.7v5.8c-0.6 0.7-1.2 0.9-1.9 0.9zm32.8-4.1c-1 1.1-2.1 2.1-3.1 3.2l1.7-8.4c0.7-2.9-0.3-4.7-2.4-4.7-3.5 0-6.8 3.8-9.7 11.1h-0.4l2.3-10.8h-8.8l-0.1 0.2 1.8 1.2-3.4 15.6h6.9c2.4-7.2 5.1-12.5 6.4-12.5 0.4 0 0.5 0.3 0.4 0.8l-2.1 9.7c-0.3 1.6 0.1 2.4 1.1 2.4 3.2 0 7-3.9 9.8-7.3zm29.5-9.4l3.2 1.1-3.2 7.2-3.6-7.2 1.5-1.1v-0.2h-10.7v0.2l1.6 1.1 1.7 3.3-1.7 3.9-3.6-7.2 1.5-1.1v-0.2h-10.7v0.2l1.6 1.1 7.9 16h0.2l5.2-11.9 5.8 11.9h0.2l7-16 2.3-1.1v-0.2h-6.2zm17.1 13c-2.4 0-4.7-1.8-5.2-4.9h9.5c0-6-3.6-8.6-7.7-8.6-6 0-9.1 4.1-9.1 8.9 0 5.5 3.9 8.8 8.9 8.8 4.9 0 7-3.3 7.8-6l-0.1-0.1c-1.2 1.3-2.6 1.9-4.1 1.9zm-3.4-12.8c0.8 0 1.8 0.4 1.8 6.9v0.3h-3.7c0-0.2 0-0.4 0-0.6 0-4.3 0.6-6.6 1.9-6.6zm35 5.1c0-4-1.7-5.8-4.8-5.8-3.1 0-5.2 2-6.7 4.6v-11.1h-8.6v0.2l1.7 1.1v21.2l-1.7 1.1v0.2h10.3v-0.2l-1.7-1.1v-10.8c1-1.2 2-2 3.1-2 1.1 0 1.5 0.7 1.5 2.3v10.5l-1.7 1.1v0.2h10.3v-0.2l-1.7-1.1zm14.9 7.7c-2.4 0-4.8-1.7-5.3-4.9h9.6c0-6-3.6-8.6-7.8-8.6-6 0-9 4.1-9 8.9 0 5.5 3.8 8.8 8.9 8.8 4.9 0 7-3.3 7.7-6h-0.1c-1.1 1.2-2.6 1.8-4 1.8zm-3.5-12.8c0.8 0 1.9 0.5 1.9 6.9v0.3h-3.7c-0.1-0.2-0.1-0.3-0.1-0.5 0-4.3 0.6-6.7 1.9-6.7zm20.2-7.2h-8.8l-0.1 0.2 1.8 1.2-4.4 20.4c-0.4 1.6 0 2.4 1.1 2.4 3.1 0 7-3.9 9.8-7.3l-0.5-0.5c-1 1.1-2 2.1-3 3.2zm10.5 24.1c5.8 0 9.6-4.5 9.6-10 0-4.7-2.8-7.7-6.8-7.7-1.9 0-3.6 0.7-5 2v-1.6h-8.6v0.1l1.7 1.2v20.5l-1.7 1.1v0.2h10.9v-0.2l-2.3-1.1v-4.7c0.7 0.1 1.4 0.2 2.2 0.2zm-1.7-14.9c2.1 0 4 3 4 7.8 0 3.6-1.1 6.6-3 6.6-0.5 0-0.9-0.1-1.5-0.7v-13.6c0.2-0.1 0.3-0.1 0.5-0.1zm19.8-9.6c-1.2 0-2.6 0.3-4.7 1.9l-2-2.6h-0.1l-1.4 6.8h0.1c2.8-3.3 4.3-4.3 5.4-4.3 0.8 0 1.3 0.5 1.3 1.3 0 2.1-5 4-5 8 0 2.1 1.7 3.3 4.5 4.7l0.3-0.5c-0.9-0.5-1.3-0.8-1.3-1.3 0-1.9 7-4 7-9.5 0-3.1-2-4.5-4.1-4.5zm-2.9 17.5c-1.9 0-3.6 1.4-3.6 3.5 0 2.1 1.7 3.4 3.6 3.4 1.9 0 3.5-1.3 3.5-3.4 0-2.1-1.6-3.5-3.5-3.5z"/>
</svg>