<svg version="1.2" xmlns="http://www.w3.org/2000/svg" viewBox="0 0 600 300" width="600" height="300">
	<title>Novo Projeto</title>
	<style>
		.s0 { fill: #ffffff } 
	</style>
	<path id="help" class="s0" aria-label="help"  d="m241.1 139.5c0-14.5-6.1-21.3-17.7-21.3-11.3 0.1-18.9 7.4-24.5 17.2v-40.9h-31.5v0.6l6.2 4.3v77.7l-6.2 4.3v0.6h37.7v-0.6l-6.2-4.3v-39.6c3.7-4.6 7.4-7.3 11.5-7.3 4.1 0 5.5 2.3 5.5 8.5v38.4l-6.3 4.3v0.6h37.8v-0.6l-6.3-4.3zm54.8 28.5c-8.9 0-17.5-6.5-19.3-18.1h35c0-22-13.1-31.6-28.3-31.6-22.2 0-33.3 15.1-33.3 32.7 0 20.3 14 32.3 32.6 32.3 18 0 25.8-12 28.5-21.9l-0.3-0.2c-4.3 4.6-9.7 6.8-14.9 6.8zm-12.8-47.2c3 0 6.9 1.7 6.9 25.4v1.2h-13.6c-0.1-0.7-0.1-1.4-0.1-2.1 0-15.8 2.1-24.5 6.8-24.5zm74.3-26.3h-32.5l-0.1 0.7 6.3 4.2-16.1 75.3c-1.2 5.8 0.3 8.6 4 8.6 11.6 0 25.8-14.3 36-26.9l-1.5-1.6c-3.7 3.9-7.6 7.6-11.4 11.5zm38.7 88.7c21.5 0 35.3-16.5 35.3-36.6 0-17.5-10.3-28.4-25-28.4-7 0-13 2.5-18.3 7.3v-6h-31.5v0.6l6.2 4.3v75.2l-6.2 4.3v0.6h40.1v-0.6l-8.6-4.3v-17.1c2.7 0.5 5.3 0.7 8 0.7zm-6.2-54.8c7.9 0 14.8 11.2 14.8 28.7 0 13.1-3.9 24.4-11.1 24.4-1.7 0-3.4-0.6-5.5-2.5v-50.3c0.6-0.2 1.2-0.3 1.8-0.3z"/>
</svg>