<svg version="1.2" xmlns="http://www.w3.org/2000/svg" viewBox="0 0 600 300" width="600" height="300">
	<title>Novo Projeto</title>
	<style>
		.s0 { fill: #ffffff } 
	</style>
	<path id="ajuda" class="s0" aria-label="ayuda"  d="m189.8 142.1c-0.1-12.5-7.6-19.8-19.6-19.8-8.8 0-16.8 4.2-22.6 7.8l-10.7-10.3h-0.7l-3.8 26.6 0.6 0.1c9.4-11 18.4-17.5 24.6-17.5 5.1 0 8.4 4.4 8.4 14.4v4c-31.9 8.2-39.4 17.1-39.4 26.9 0 7.2 6.1 13 16 13 9.1 0 17.9-6.4 23.4-14.3v13h30v-0.6l-6.3-4.3zm-31 31.5c-3.7 0-6.7-2.5-6.7-7.2 0-7.9 5.1-12.4 14-17.3v21.4c-2.5 2.4-4.6 3.1-7.3 3.1zm80.5-49.5l11.7 4.3-11.4 26.5-13.5-26.5 5.5-4.3v-0.6h-39.3v0.6l5.9 4.2 28.1 56.8-17 22.8v0.6h10.3l34-80.1 8.5-4.3v-0.6h-22.8zm103.2 34.6c-3.8 3.9-7.7 7.7-11.4 11.5l9.9-46.7h-25.3c-8.9 26.7-18.7 46.1-23.5 46.1-1.6 0-2-1.1-1.6-3.1l9.2-43h-32.5l-0.1 0.6 6.4 4.3-8.8 41.6c-2.2 10.5 1.4 17.2 9.2 17.2 12.7 0 25-14.1 35.3-40.7h1.5l-6.8 32.1c-1.3 5.9 0.2 8.6 4 8.6 11.6 0 25.7-14.2 36-26.8zm72.6-60.3h-31.5v0.6l6.2 4.3v19.6c-2.7-0.5-5.3-0.7-8-0.7-21.5 0-35.3 16.5-35.3 36.6 0 17.5 10.3 28.4 25 28.4 7 0 13-2.5 18.3-7.3v6h31.5v-0.6l-6.2-4.3zm-27.1 78.7c-7.9 0-14.8-11.3-14.8-28.8 0-13.1 3.9-24.4 11.1-24.4 1.7 0 3.4 0.6 5.5 2.5v50.3c-0.6 0.2-1.2 0.4-1.8 0.4zm98.2-35c0-12.5-7.5-19.9-19.5-19.9-8.9 0-16.9 4.2-22.6 7.9l-10.8-10.4h-0.6l-3.9 26.6 0.7 0.1c9.3-11 18.3-17.5 24.6-17.5 5.1 0 8.4 4.4 8.4 14.4v4c-31.9 8.3-39.4 17.1-39.4 26.9 0 7.2 6.1 13 16 13 9.1 0 17.9-6.4 23.4-14.3v13h30v-0.6l-6.3-4.2zm-31 31.5c-3.7 0-6.7-2.5-6.7-7.3 0-7.9 5.1-12.4 14-17.3v21.4c-2.5 2.4-4.7 3.2-7.3 3.2z"/>
</svg>