<svg version="1.2" xmlns="http://www.w3.org/2000/svg" viewBox="0 0 400 300" width="400" height="300">
	<title>Novo Projeto</title>
	<style>
		.s0 { fill: #ffffff } 
	</style>
	<path id="Comment pouvons-nous t'aider ?  " class="s0" aria-label="Comment pouvons-nous t'aider ?






"  d="m19.6 142.8c-0.6-0.1-1.6-2-1.6-8.6 0-6.5 1-8.5 1.6-8.5 0.8 0 2.1 1.4 7 6.6h0.1l-1.1-7.6h-0.1l-1.6 2.1c-1.6-1.1-2.9-1.6-4.3-1.6-4.5 0-8 3.8-8 9 0 5.3 3.5 9 8 9 1.4 0 2.7-0.4 4.3-1.5l1.6 2h0.1l1.1-7.5h-0.1c-4.9 5.2-6.2 6.5-7 6.5zm15.3 0.5c4.2 0 7.2-2.7 7.2-6.5 0-3.7-3-6.5-7.2-6.5-4.1 0-7.1 2.8-7.1 6.5 0 3.8 3 6.5 7.1 6.5zm0-0.3c-1.1 0-1.8-2.4-1.8-6.2 0-3.7 0.7-6.1 1.8-6.1 1.1 0 1.8 2.4 1.8 6.1 0 3.8-0.7 6.2-1.8 6.2zm30.3-8.4c0-2.9-1.3-4.3-3.6-4.3-2.1 0-3.5 1.3-4.6 3-0.4-2-1.5-3-3.5-3-2 0-3.4 1.2-4.5 2.9v-2.6h-6.3v0.1l1.2 0.9v10.5l-1.2 0.9v0.1h7.5v-0.1l-1.2-0.9v-8.3c0.6-0.7 1.2-1.1 1.9-1.1 0.8 0 1.1 0.5 1.1 1.7v7.7l-1.2 0.9v0.1h7.5v-0.1l-1.2-0.9v-7.5c0-0.3 0-0.5-0.1-0.8 0.7-0.7 1.3-1.1 2-1.1 0.8 0 1.1 0.5 1.1 1.7v7.7l-1.2 0.9v0.1h7.5v-0.1l-1.2-0.9zm26.1 3.1c-0.7 0.7-1.5 1.5-2.2 2.3l1.2-6.2c0.5-2.1-0.2-3.4-1.8-3.4-2.6 0-5 2.8-7.1 8.1h-0.3l1-4.7c0.5-2.1-0.3-3.4-1.8-3.4-2.6 0-5 2.8-7.1 8.1h-0.3l1.7-7.9h-6.5v0.1l1.2 0.9-2.4 11.5h5c1.8-5.3 3.8-9.2 4.8-9.2 0.3 0 0.3 0.2 0.3 0.6l-1.8 8.6h5c1.7-5.3 3.7-9.2 4.6-9.2 0.4 0 0.4 0.2 0.4 0.6l-1.6 7.2c-0.2 1.1 0.1 1.7 0.8 1.7 2.3 0 5.2-2.9 7.2-5.4zm10 2.6c-1.8 0-3.5-1.3-3.9-3.6h7c0-4.4-2.6-6.3-5.7-6.3-4.4 0-6.6 3-6.6 6.5 0 4.1 2.8 6.5 6.5 6.5 3.6 0 5.2-2.4 5.7-4.4h-0.1c-0.8 0.9-1.9 1.3-2.9 1.3zm-2.6-9.4c0.6 0 1.4 0.3 1.4 5.1v0.2h-2.7c-0.1-0.1-0.1-0.3-0.1-0.4 0-3.2 0.5-4.9 1.4-4.9zm21 3.7c0-2.9-1.3-4.2-3.6-4.2-2.1 0-3.5 1.3-4.7 3v-2.8h-6.3v0.2l1.3 0.8v10.6l-1.3 0.8v0.1h7.6v-0.1l-1.3-0.8v-8.2c0.7-0.8 1.4-1.2 2.1-1.2 0.8 0 1.1 0.4 1.1 1.7v7.7l-1.2 0.8v0.1h7.5v-0.1l-1.2-0.8zm10.5 6.6c-0.3 0.1-0.7 0.2-1.1 0.2-1.1 0-1.4-1.1-1.4-2.1v-8.2h2.6v-0.5h-2.7v-2.8l-5 2.8h-1.4v0.5h1.4v8.6c0 2.7 1.6 3.6 3.4 3.6 1.6 0 3.3-0.9 4.3-1.9zm12.9 2.2c4.3 0 7.1-3.3 7.1-7.3 0-3.5-2.1-5.7-5-5.7-1.4 0-2.6 0.5-3.7 1.4v-1.2h-6.3v0.2l1.3 0.8v15.1l-1.3 0.8v0.1h8v-0.1l-1.7-0.8v-3.5c0.6 0.1 1.1 0.2 1.6 0.2zm-1.2-11c1.6 0 2.9 2.3 2.9 5.8 0 2.6-0.7 4.9-2.2 4.9-0.3 0-0.7-0.2-1.1-0.5v-10.1c0.1 0 0.3-0.1 0.4-0.1zm16.4 11c4.1 0 7.1-2.8 7.1-6.5 0-3.8-3-6.5-7.1-6.5-4.2 0-7.2 2.7-7.2 6.5 0 3.7 3 6.5 7.2 6.5zm0-0.4c-1.1 0-1.8-2.4-1.8-6.1 0-3.7 0.7-6.1 1.8-6.1 1.1 0 1.8 2.4 1.8 6.1 0 3.7-0.7 6.1-1.8 6.1zm24.1-5.3c-0.8 0.8-1.5 1.5-2.3 2.3l2-9.4h-5.1c-1.7 5.4-3.7 9.3-4.7 9.3-0.3 0-0.4-0.3-0.3-0.7l1.9-8.6h-6.5l-0.1 0.2 1.3 0.8-1.7 8.4c-0.5 2 0.2 3.4 1.8 3.4 2.5 0 5-2.8 7.1-8.2h0.3l-1.4 6.5c-0.3 1.1 0 1.7 0.8 1.7 2.3 0 5.1-2.9 7.2-5.4zm9.4-6.9l2.3 0.8-2.3 5.3-2.7-5.3 1.1-0.8v-0.1h-7.8v0.1l1.2 0.8 5.8 11.8h0.1l5.1-11.8 1.7-0.8v-0.1h-4.5zm10.5 12.6c4.2 0 7.2-2.8 7.2-6.5 0-3.8-3-6.5-7.2-6.5-4.1 0-7.1 2.7-7.1 6.5 0 3.7 3 6.5 7.1 6.5zm0-0.4c-1.1 0-1.8-2.4-1.8-6.1 0-3.7 0.7-6.1 1.8-6.1 1.1 0 1.8 2.4 1.8 6.1 0 3.7-0.7 6.1-1.8 6.1zm22.3-8.4c0-2.9-1.2-4.2-3.5-4.2-2.1 0-3.6 1.3-4.7 3v-2.8h-6.3v0.2l1.2 0.8v10.6l-1.2 0.8v0.1h7.5v-0.1l-1.2-0.8v-8.2c0.7-0.8 1.3-1.2 2.1-1.2 0.8 0 1.1 0.4 1.1 1.7v7.7l-1.3 0.8v0.1h7.6v-0.1l-1.3-0.8zm5.6-3.2c0-0.5 0.3-0.7 0.9-0.7 1.1 0 3.2 1.6 5.6 4.4h0.2l-0.8-5.3h-0.1l-1.5 1.4c-1.1-0.6-2.3-0.9-3.5-0.9-2.4 0-4.4 1.4-4.4 4 0 4.9 6.9 4.8 6.9 7.6 0 0.7-0.3 1-1 1-1.1 0-2.8-1-5.6-4.4h-0.1l0.7 5.3h0.2l1.4-1.3c1.2 0.5 2.5 0.8 3.6 0.8 2.7 0 4.8-1.4 4.8-4 0-4.7-7.3-4.8-7.3-7.9zm14 4.1v-0.5h-6.5v0.5zm15-0.9c0-2.9-1.2-4.3-3.6-4.3-2 0-3.5 1.3-4.6 3v-2.7h-6.3v0.1l1.2 0.8v10.6l-1.2 0.8v0.2h7.5v-0.2l-1.2-0.8v-8.2c0.6-0.8 1.3-1.2 2-1.2 0.9 0 1.1 0.5 1.1 1.7v7.7l-1.2 0.8v0.2h7.5v-0.2l-1.2-0.8zm7.5 8.7c4.4 0 8.2-3.5 8.2-7.8 0-3-2.2-5.2-5.8-5.2-4.4 0-8.2 3.6-8.2 7.9 0 3.1 2.3 5.1 5.8 5.1zm-0.1-0.3c-0.6 0-0.9-0.9-0.9-2.3 0-2.7 1.9-10 3.5-10 0.4 0 0.8 0.8 0.8 2.1 0 2.4-1.7 10.2-3.4 10.2zm23.3-12.4h-6.3v0.1l1.3 0.9v8.2c-0.7 0.7-1.3 1.1-2.1 1.1-0.8 0-1.1-0.4-1.1-1.6v-8.7h-6.3v0.1l1.3 0.9v7.5c0 2.9 1.2 4.2 3.5 4.2 2.1 0 3.6-1.2 4.7-3v2.8h6.3v-0.1l-1.3-0.9zm5.8 0.8c0-0.4 0.3-0.7 0.8-0.7 1.1 0 3.2 1.7 5.7 4.5h0.1l-0.8-5.3h-0.1l-1.4 1.4c-1.2-0.6-2.4-0.9-3.5-0.9-2.5 0-4.5 1.3-4.5 3.9 0 5 7 4.9 7 7.7 0 0.6-0.4 1-1.1 1-1.1 0-2.8-1-5.6-4.4h-0.1l0.8 5.3h0.1l1.5-1.4c1.2 0.6 2.4 0.8 3.6 0.8 2.6 0 4.7-1.4 4.7-3.9 0-4.7-7.2-4.8-7.2-8zm21.4 9.8c-0.3 0.1-0.7 0.2-1 0.2-1.2 0-1.5-1-1.5-2v-8.3h2.6v-0.5h-2.6v-2.7l-5.1 2.7h-1.4v0.5h1.4v8.7c0 2.7 1.6 3.6 3.4 3.6 1.6 0 3.3-0.9 4.3-1.9zm2.4-7c1.5-6.3 1.9-8.2 1.9-8.6h-4c0 0.4 0.4 2.3 1.9 8.6zm14.2 0.1c0-2.5-1.5-3.9-3.9-3.9-1.8 0-3.4 0.8-4.6 1.5l-2.1-2h-0.1l-0.8 5.3h0.1c1.9-2.2 3.7-3.5 4.9-3.5 1.1 0 1.7 0.9 1.7 2.9v0.8c-6.4 1.6-7.9 3.4-7.9 5.4 0 1.4 1.3 2.6 3.2 2.6 1.8 0 3.6-1.3 4.7-2.9v2.6h6v-0.1l-1.2-0.9zm-6.2 6.3c-0.8 0-1.4-0.5-1.4-1.4 0-1.6 1-2.5 2.8-3.5v4.3c-0.5 0.5-0.9 0.6-1.4 0.6zm11.7-11.4c1.5 0 2.6-1.1 2.6-2.6 0-1.5-1.1-2.6-2.6-2.6-1.6 0-2.7 1.1-2.7 2.6 0 1.5 1.1 2.6 2.7 2.6zm3.7 13.9v-0.1l-1.2-0.9v-11.5h-6.3v0.1l1.2 0.9v10.5l-1.2 0.9v0.1zm16.6-17.5h-6.5v0.1l1.3 0.9-0.8 3.8h-0.2c-5.3 0-10.2 4.5-10.2 10 0 1.5 0.9 3 2.7 3 1.8 0 3.7-0.9 6.1-6.8h0.2l-1.1 5c-0.2 1.2 0.1 1.8 0.8 1.8 2.4 0 5.2-2.9 7.2-5.4l-0.2-0.3c-0.8 0.7-1.6 1.5-2.3 2.3zm-10.8 14.6c-0.4 0-0.6-0.3-0.6-0.9 0-2.4 1.5-6.8 3.8-8.6 0.4 0.2 0.8 0.5 1.2 0.8-2.3 7.9-3.9 8.7-4.4 8.7zm20 0.1c-1.8 0-3.5-1.3-3.9-3.7h7c0-4.4-2.6-6.3-5.7-6.3-4.4 0-6.6 3-6.6 6.6 0 4 2.8 6.4 6.5 6.4 3.6 0 5.2-2.4 5.7-4.4h-0.1c-0.8 0.9-1.9 1.4-2.9 1.4zm-2.6-9.5c0.6 0 1.4 0.4 1.4 5.1v0.2h-2.7c-0.1-0.1-0.1-0.2-0.1-0.4 0-3.1 0.5-4.9 1.4-4.9zm17.3 0c-0.7-0.3-1.3-0.5-1.8-0.5-1.4 0-2 1.4-2.8 3.5v-3.2h-6.3v0.1l1.3 0.8v10.6l-1.3 0.8v0.2h8.1v-0.2l-1.8-0.8v-7.5c0.7-0.7 1.3-1 2-1 0.7 0 1.8 0.7 3 1.8h0.1zm11.7-5.5c-0.9 0-1.9 0.2-3.5 1.4l-1.4-1.9h-0.1l-1.1 5h0.1c2.1-2.4 3.2-3.2 4-3.2 0.6 0 0.9 0.4 0.9 1 0 1.6-3.7 3-3.7 5.9 0 1.5 1.3 2.4 3.4 3.5l0.2-0.4c-0.7-0.4-1-0.6-1-1 0-1.4 5.2-3 5.2-7 0-2.3-1.5-3.3-3-3.3zm-2.2 12.9c-1.4 0-2.6 1-2.6 2.6 0 1.5 1.2 2.5 2.6 2.5 1.4 0 2.6-1 2.6-2.5 0-1.6-1.2-2.6-2.6-2.6z"/>
</svg>