<svg version="1.2" xmlns="http://www.w3.org/2000/svg" viewBox="0 0 600 300" width="600" height="300">
	<title>Novo Projeto</title>
	<style>
		.s0 { fill: #ffffff } 
	</style>
	<path id="aide " class="s0" aria-label="aide "  d="m236.8 153.1c-0.1-12.5-7.6-19.8-19.6-19.8-8.8 0-16.8 4.2-22.6 7.8l-10.7-10.3h-0.7l-3.8 26.6 0.6 0.1c9.4-11 18.4-17.5 24.6-17.5 5.1 0 8.4 4.4 8.4 14.4v4c-31.9 8.2-39.4 17.1-39.4 26.9 0 7.2 6.1 13 16 13 9.1 0 17.9-6.4 23.4-14.3v13h30v-0.6l-6.3-4.3zm-31 31.5c-3.7 0-6.7-2.5-6.7-7.2 0-7.9 5.1-12.4 14-17.3v21.4c-2.5 2.4-4.6 3.1-7.3 3.1zm58.7-57c7.7 0 13.3-5.5 13.3-13 0-7.7-5.6-13.3-13.3-13.3-7.9 0-13.7 5.6-13.7 13.3 0 7.5 5.8 13 13.7 13zm18.7 69.4v-0.6l-6.2-4.3v-57.6h-31.5v0.6l6.2 4.3v52.7l-6.2 4.3v0.6zm83.2-87.5h-32.5l-0.1 0.6 6.4 4.3-4 18.9h-0.8c-26.6 0-51.2 22.8-51.2 50 0 7.6 4.5 15 13.6 15 9 0 18.5-4.4 30.4-33.8h1.2l-5.4 25.1c-1.2 5.9 0.3 8.7 4 8.7 11.7 0 25.8-14.3 36-26.9l-1.5-1.7c-3.7 3.9-7.6 7.7-11.3 11.5zm-54.2 73c-1.6 0-2.6-1.2-2.6-4.1 0-12.1 7.5-34.1 18.8-43 2.2 1 4.1 2.3 6.1 3.9-11.4 39.3-19.8 43.3-22.3 43.3zm100.2 0.5c-8.9 0-17.5-6.5-19.3-18.2h35c0-22-13.1-31.6-28.4-31.6-22.1 0-33.2 15.1-33.2 32.8 0 20.2 14 32.2 32.6 32.2 18 0 25.8-12 28.5-21.9l-0.4-0.2c-4.2 4.6-9.6 6.9-14.8 6.9zm-12.8-47.3c3 0 6.9 1.7 6.9 25.4v1.2h-13.6c-0.2-0.7-0.2-1.4-0.2-2.1 0-15.8 2.2-24.5 6.9-24.5z"/>
</svg>