<svg version="1.2" xmlns="http://www.w3.org/2000/svg" viewBox="0 0 400 300" width="400" height="300">
	<title>Novo Projeto</title>
	<style>
		.s0 { fill: #ffffff } 
	</style>
	<path id="Come possiamo aiutarvi? " class="s0" aria-label="Come possiamo aiutarvi? "  d="m19.1 143.7c-0.9 0-2.2-2.5-2.2-10.9 0-8.4 1.3-10.9 2.2-10.9 0.9 0 2.6 1.7 8.9 8.4h0.1l-1.4-9.7h-0.2l-2 2.6c-2.1-1.3-3.6-1.9-5.4-1.9-5.9 0-10.3 4.8-10.3 11.5 0 6.7 4.4 11.5 10.3 11.5 1.7 0 3.3-0.6 5.4-1.9l2 2.6h0.2l1.4-9.7h-0.1c-6.3 6.7-8 8.4-8.9 8.4zm19.5 0.6c5.3 0 9.2-3.5 9.2-8.3 0-4.8-3.9-8.3-9.2-8.3-5.3 0-9.1 3.5-9.1 8.3 0 4.8 3.8 8.3 9.1 8.3zm0-0.5c-1.4 0-2.3-3-2.3-7.8 0-4.8 0.9-7.8 2.3-7.8 1.4 0 2.3 3 2.3 7.8 0 4.8-0.9 7.8-2.3 7.8zm41.4-6.8c-1 1-2 2-2.9 3l1.6-7.9c0.6-2.7-0.3-4.4-2.3-4.4-3.3 0-6.4 3.6-9.1 10.4h-0.4l1.3-6c0.6-2.7-0.3-4.4-2.3-4.4-3.3 0-6.4 3.6-9.1 10.4h-0.4l2.2-10.1h-8.3l-0.1 0.2 1.7 1-3.2 14.8h6.5c2.3-6.8 4.8-11.8 6-11.8 0.4 0 0.5 0.3 0.4 0.8l-2.3 11h6.4c2.3-6.8 4.8-11.8 6-11.8 0.4 0 0.5 0.3 0.4 0.8l-2 9.1c-0.3 1.5 0.1 2.2 1.1 2.2 2.9 0 6.6-3.6 9.2-6.9zm12.7 3.4c-2.3 0-4.5-1.6-4.9-4.6h9c0-5.6-3.4-8.1-7.3-8.1-5.7 0-8.5 3.9-8.5 8.4 0 5.2 3.6 8.2 8.3 8.2 4.6 0 6.6-3 7.3-5.6h-0.1c-1.1 1.2-2.4 1.7-3.8 1.7zm-3.2-12.1c0.7 0 1.7 0.5 1.7 6.5v0.4h-3.5c0-0.2 0-0.4 0-0.6 0-4 0.5-6.3 1.8-6.3zm24.1 16c5.6 0 9.1-4.2 9.1-9.3 0-4.5-2.7-7.3-6.4-7.3-1.8 0-3.3 0.6-4.7 1.9v-1.6h-8.1v0.2l1.6 1.1v19.2l-1.6 1.1v0.2h10.3v-0.2l-2.2-1.1v-4.4c0.7 0.2 1.4 0.2 2 0.2zm-1.5-14c2 0 3.8 2.9 3.8 7.3 0 3.4-1 6.3-2.9 6.3-0.4 0-0.9-0.2-1.4-0.7v-12.8c0.2-0.1 0.3-0.1 0.5-0.1zm20.9 14c5.4 0 9.2-3.5 9.2-8.3 0-4.8-3.8-8.3-9.2-8.3-5.3 0-9.1 3.5-9.1 8.3 0 4.8 3.8 8.3 9.1 8.3zm0-0.4c-1.4 0-2.3-3.1-2.3-7.9 0-4.8 0.9-7.8 2.3-7.8 1.4 0 2.3 3 2.3 7.8 0 4.8-0.9 7.9-2.3 7.9zm15.1-14.8c0-0.6 0.4-1 1.1-1 1.5 0 4.1 2.2 7.3 5.8h0.1l-1-6.8h-0.1l-1.9 1.7c-1.4-0.7-3-1.1-4.4-1.1-3.2 0-5.7 1.7-5.7 5.1 0 6.3 8.9 6.2 8.9 9.8 0 0.8-0.5 1.3-1.3 1.3-1.5 0-3.7-1.4-7.2-5.7h-0.2l1 6.8h0.1l1.9-1.8c1.6 0.8 3.2 1.1 4.6 1.1 3.4 0 6.2-1.8 6.2-5.1 0-6-9.4-6.1-9.4-10.1zm15.9 15.2c4.3 0 7.4-2.4 7.4-5.3 0-4.2-7.2-6.3-7.2-9.5 0-0.5 0.2-1 0.5-1.3 1.9 0.4 4 2.5 6.2 5.8l1.9-4.5c-2-1.1-4.3-1.8-6.4-1.8-4 0-6.9 2.3-6.9 5.5 0 4.4 6.9 6.8 6.9 9.2 0 0.4-0.2 0.9-0.7 1.3-2-0.5-4.5-2.9-6.5-6l-1.9 4.7c2 1.1 4.2 1.9 6.7 1.9zm13.9-18c2 0 3.4-1.5 3.4-3.4 0-2-1.4-3.4-3.4-3.4-2 0-3.5 1.4-3.5 3.4 0 1.9 1.5 3.4 3.5 3.4zm4.8 17.7v-0.1l-1.6-1.1v-14.8h-8.1v0.2l1.6 1.1v13.5l-1.6 1.1v0.1zm16.7-11.2c0-3.2-1.9-5.1-5-5.1-2.3 0-4.3 1.1-5.8 2l-2.8-2.6h-0.1l-1 6.8h0.2c2.4-2.8 4.7-4.5 6.3-4.5 1.3 0 2.1 1.1 2.1 3.7v1c-8.2 2.1-10.1 4.4-10.1 6.9 0 1.9 1.6 3.3 4.1 3.3 2.4 0 4.6-1.6 6-3.6v3.3h7.7v-0.1l-1.6-1.1zm-8 8c-0.9 0-1.7-0.6-1.7-1.8 0-2 1.3-3.2 3.6-4.4v5.4c-0.6 0.6-1.2 0.8-1.9 0.8zm39-7.7c0-3.7-1.6-5.4-4.6-5.4-2.6 0-4.5 1.6-5.9 3.8-0.4-2.6-1.9-3.8-4.4-3.8-2.6 0-4.4 1.5-5.8 3.6v-3.3h-8.1v0.2l1.6 1v13.6l-1.6 1v0.2h9.7v-0.2l-1.6-1v-10.7c0.8-0.9 1.6-1.3 2.4-1.3 1.1 0 1.5 0.5 1.5 2.1v9.9l-1.6 1v0.2h9.6v-0.2l-1.6-1v-9.7c0-0.3 0-0.7 0-1 0.8-0.9 1.6-1.3 2.5-1.3 1.1 0 1.4 0.5 1.4 2.1v9.9l-1.6 1v0.2h9.7v-0.2l-1.6-1zm9.6 11.2c5.7 0 10.5-4.6 10.5-10 0-3.9-2.8-6.7-7.4-6.7-5.7 0-10.5 4.6-10.5 10 0 4 2.9 6.7 7.4 6.7zm-0.2-0.5c-0.6 0-1.1-1.2-1.1-3 0-3.3 2.4-12.7 4.5-12.7 0.6 0 1 1 1 2.6 0 3.1-2.2 13.1-4.4 13.1zm33.3-11.1c0-3.2-1.9-5.1-5-5.1-2.2 0-4.3 1.1-5.7 2l-2.8-2.6h-0.2l-0.9 6.8h0.1c2.4-2.8 4.7-4.5 6.3-4.5 1.3 0 2.2 1.2 2.2 3.7v1c-8.2 2.2-10.1 4.4-10.1 6.9 0 1.9 1.5 3.4 4.1 3.4 2.3 0 4.6-1.7 6-3.7v3.3h7.6v-0.1l-1.6-1.1zm-7.9 8c-1 0-1.7-0.6-1.7-1.8 0-2 1.3-3.2 3.6-4.4v5.4c-0.7 0.7-1.2 0.8-1.9 0.8zm15-14.5c2 0 3.4-1.5 3.4-3.4 0-2-1.4-3.4-3.4-3.4-2 0-3.5 1.4-3.5 3.4 0 1.9 1.5 3.4 3.5 3.4zm4.8 17.7v-0.1l-1.6-1.1v-14.8h-8.1v0.2l1.6 1.1v13.5l-1.6 1.1v0.1zm21.6-7c-1 1-2 2-3 3l2.6-12h-6.5c-2.3 6.9-4.8 11.8-6 11.8-0.4 0-0.5-0.3-0.4-0.8l2.3-11h-8.3v0.2l1.6 1.1-2.2 10.6c-0.6 2.7 0.3 4.4 2.3 4.4 3.3 0 6.4-3.6 9.1-10.4h0.4l-1.8 8.2c-0.3 1.5 0.1 2.2 1 2.2 3 0 6.6-3.6 9.2-6.8zm12.1 4.5c-0.4 0.2-0.9 0.3-1.3 0.3-1.5 0-1.9-1.4-1.9-2.6v-10.6h3.3v-0.7h-3.4v-3.5l-6.5 3.5h-1.8v0.7h1.8v11c0 3.5 2.1 4.7 4.4 4.7 2.1 0 4.2-1.2 5.6-2.4zm16.4-8.8c0-3.2-1.9-5.1-5-5.1-2.2 0-4.3 1.1-5.7 2l-2.8-2.7h-0.2l-0.9 6.8 0.1 0.1c2.4-2.8 4.7-4.5 6.3-4.5 1.3 0 2.2 1.1 2.2 3.7v1c-8.2 2.1-10.1 4.4-10.1 6.9 0 1.8 1.5 3.3 4.1 3.3 2.3 0 4.6-1.6 6-3.6v3.3h7.6v-0.2l-1.6-1.1zm-7.9 8.1c-1 0-1.7-0.6-1.7-1.9 0-2 1.3-3.1 3.6-4.4v5.5c-0.7 0.6-1.2 0.8-1.9 0.8zm24-12.5c-0.8-0.4-1.6-0.6-2.2-0.6-1.8 0-2.6 1.7-3.6 4.5v-4.2h-8.1v0.1l1.6 1.1v13.5l-1.6 1.1v0.2h10.3v-0.2l-2.2-1.1v-9.6c0.8-0.8 1.6-1.2 2.5-1.2 0.9 0 2.4 0.8 3.9 2.3zm12.5-0.2l3 1.1-3 6.8-3.4-6.8 1.4-1.1v-0.1h-10v0.1l1.5 1.1 7.4 15.1h0.2l6.5-15.1 2.2-1.1v-0.1h-5.8zm10.4-1.9c2 0 3.4-1.4 3.4-3.4 0-1.9-1.4-3.4-3.4-3.4-2 0-3.5 1.5-3.5 3.4 0 2 1.5 3.4 3.5 3.4zm4.8 17.7v-0.1l-1.6-1.1v-14.8h-8v0.2l1.6 1.1v13.5l-1.6 1.1v0.1zm8.2-22.7c-1.2 0-2.5 0.3-4.5 1.7l-1.8-2.3h-0.1l-1.4 6.3h0.1c2.7-3.1 4.1-4 5.1-4 0.8 0 1.2 0.4 1.2 1.2 0 2-4.7 3.8-4.7 7.6 0 1.9 1.6 3 4.3 4.4l0.2-0.5c-0.8-0.5-1.2-0.7-1.2-1.2 0-1.9 6.6-3.8 6.6-9 0-2.9-1.9-4.2-3.8-4.2zm-2.8 16.4c-1.8 0-3.4 1.3-3.4 3.4 0 1.9 1.6 3.2 3.4 3.2 1.8 0 3.3-1.3 3.3-3.2 0-2.1-1.5-3.4-3.3-3.4z"/>
</svg>