<svg version="1.2" xmlns="http://www.w3.org/2000/svg" viewBox="0 0 600 300" width="600" height="300">
	<title>Novo Projeto</title>
	<style>
		.s0 { fill: #ffffff } 
	</style>
	<path id="yardım " class="s0" aria-label="aiuto"  d="m148.8 138.1c-0.1-12.5-7.6-19.8-19.6-19.8-8.8 0-16.8 4.2-22.6 7.8l-10.7-10.3h-0.7l-3.8 26.6 0.6 0.1c9.4-11 18.4-17.5 24.6-17.5 5.1 0 8.4 4.4 8.4 14.4v4c-31.9 8.2-39.4 17.1-39.4 26.9 0 7.2 6.1 13 16 13 9.1 0 17.9-6.4 23.4-14.3v13h30v-0.6l-6.3-4.3zm-31 31.5c-3.7 0-6.7-2.5-6.7-7.2 0-7.9 5.1-12.4 14-17.3v21.4c-2.5 2.4-4.6 3.1-7.3 3.1zm58.7-57c7.7 0 13.3-5.5 13.3-13 0-7.7-5.6-13.3-13.3-13.3-7.9 0-13.7 5.6-13.7 13.3 0 7.5 5.8 13 13.7 13zm18.7 69.4v-0.6l-6.2-4.3v-57.6h-31.5v0.6l6.2 4.3v52.7l-6.2 4.3v0.6zm84-27.2c-3.8 3.8-7.7 7.6-11.4 11.5l9.9-46.8h-25.3c-8.9 26.8-18.7 46.1-23.5 46.1-1.6 0-2-1.1-1.6-3.1l9.2-43h-32.5l-0.1 0.6 6.4 4.3-8.8 41.6c-2.2 10.5 1.4 17.2 9.2 17.2 12.7 0 25-14.1 35.3-40.7h1.5l-6.8 32.1c-1.3 5.9 0.2 8.6 4 8.6 11.6 0 25.7-14.2 36-26.8zm47 17.7c-1.5 0.7-3.5 1.2-5.2 1.2-5.7 0-7.3-5.3-7.3-10.3v-41.4h13.1v-2.5h-13.3v-13.7l-25.3 13.7h-7v2.5h7v43.1c0 13.7 8 18.2 17.1 18.2 8 0 16.4-4.5 21.6-9.4zm35.3 10.8c20.7-0.1 35.7-13.8 35.7-32.7 0-18.7-15-32.4-35.7-32.4-20.8 0.1-35.8 13.7-35.8 32.4 0 18.9 15 32.6 35.8 32.6zm0-1.8c-5.5 0-9-12-9-30.8 0-18.5 3.5-30.5 9-30.5 5.5 0 9 12 9 30.5 0 18.8-3.5 30.8-9 30.8z"/>
</svg>