<svg version="1.2" xmlns="http://www.w3.org/2000/svg" viewBox="0 0 400 300" width="400" height="300">
	<title>Novo Projeto</title>
	<style>
		.s0 { fill: #ffffff } 
	</style>
	<path id="Hoe kunnen we helpen? " class="s0" aria-label="Hoe kunnen we helpen? "  d="m31.6 122.6h-11.2v0.2l2 1v9.2h-5.7v-9.2l2-1v-0.2h-11.2v0.2l2 1v20l-2 1v0.2h11.2v-0.2l-2-1v-10.1h5.7v10.1l-2 1v0.2h11.2v-0.2l-2-1v-20l2-1zm8.3 22.7c5.6 0 10.5-4.6 10.5-10 0-3.9-2.9-6.7-7.4-6.7-5.7 0-10.5 4.6-10.5 10.1 0 3.9 2.9 6.6 7.4 6.6zm-0.2-0.5c-0.7 0-1.1-1.2-1.1-3 0-3.3 2.4-12.7 4.4-12.7 0.6 0 1.1 1 1.1 2.7 0 3-2.2 13-4.4 13zm23.5-3.4c-2.3 0-4.5-1.7-5-4.7h9c0-5.6-3.4-8.1-7.3-8.1-5.6 0-8.5 3.9-8.5 8.4 0 5.2 3.6 8.3 8.4 8.3 4.6 0 6.6-3.1 7.3-5.6l-0.1-0.1c-1.1 1.2-2.5 1.8-3.8 1.8zm-3.3-12.1c0.8 0 1.8 0.4 1.8 6.5v0.3h-3.5c-0.1-0.2-0.1-0.4-0.1-0.5 0-4.1 0.6-6.3 1.8-6.3zm34.4 16.3l0.2-0.2-6.8-12.5 3.1-2.7 2.7-1.1v-0.1h-6.6v0.1l3.1 1.1-8 6.7v-14.3h-8v0.1l1.6 1.1v19.9l-1.6 1.1v0.2h9.6v-0.2l-1.6-1.1v-6l0.2-0.1zm18.3-16.7h-8.1v0.2l1.6 1.1v10.5c-0.8 0.9-1.7 1.5-2.6 1.5-1.1 0-1.4-0.6-1.4-2.2v-11.1h-8.1v0.2l1.6 1.1v9.6c0 3.7 1.6 5.4 4.6 5.4 2.6 0 4.5-1.6 5.9-3.8v3.5h8.1v-0.1l-1.6-1.1zm20.9 5.1c0-3.7-1.5-5.4-4.5-5.4-2.7 0-4.6 1.6-6 3.8v-3.5h-8.1v0.1l1.6 1.1v13.5l-1.6 1.1v0.2h9.7v-0.2l-1.6-1.1v-10.5c0.9-0.9 1.7-1.5 2.7-1.5 1 0 1.4 0.6 1.4 2.2v9.8l-1.6 1.1v0.2h9.6v-0.2l-1.6-1.1zm23 3.9c-1 1-1.9 2-2.9 3l1.6-7.9c0.6-2.7-0.3-4.4-2.3-4.4-3.3 0-6.4 3.6-9.1 10.4h-0.3l2.1-10.1h-8.3l-0.1 0.2 1.7 1.1-3.2 14.7h6.5c2.3-6.8 4.8-11.8 6-11.8 0.4 0 0.5 0.3 0.4 0.8l-1.9 9.1c-0.4 1.5 0 2.2 1 2.2 3 0 6.6-3.6 9.2-6.8zm12.7 3.3c-2.2 0-4.5-1.6-4.9-4.6h9c0-5.6-3.4-8.1-7.3-8.1-5.7 0-8.5 3.9-8.5 8.4 0 5.2 3.6 8.2 8.3 8.2 4.6 0 6.6-3 7.3-5.6h-0.1c-1.1 1.2-2.4 1.7-3.8 1.7zm-3.2-12.1c0.7 0 1.7 0.5 1.7 6.5v0.4h-3.5c0-0.2 0-0.4 0-0.6 0-4 0.5-6.3 1.8-6.3zm26.8 4.8c0-3.7-1.6-5.4-4.6-5.4-2.6 0-4.5 1.6-5.9 3.9v-3.6h-8.1v0.2l1.6 1.1v13.5l-1.6 1.1v0.1h9.7v-0.1l-1.6-1.1v-10.5c0.8-1 1.6-1.5 2.6-1.5 1.1 0 1.4 0.6 1.4 2.2v9.8l-1.6 1.1v0.1h9.7v-0.1l-1.6-1.1zm29.2-5l2.9 1.1-2.9 6.8-3.4-6.8 1.4-1.1v-0.1h-10.1v0.1l1.6 1.1 1.5 3.1-1.6 3.7-3.4-6.8 1.4-1.1v-0.1h-10v0.1l1.5 1.1 7.4 15.1h0.2l4.9-11.2 5.5 11.2h0.2l6.5-15.1 2.2-1.1v-0.1h-5.8zm16.3 11.8c-3 0.4-4.5-1.6-4.9-3.8 4.9-1.6 8.9-4.6 8.9-6.6 0-1.2-1.2-1.9-2.9-1.9-4.4 0-12 3.8-12 11 0 3.5 2.1 5.6 5.1 5.6 3.9 0 5.7-2.4 8.9-6.9l-0.4-0.4zm-3.1-11c1.1 0.3 1.8 1.2 1.8 2.3 0 1.4-1.1 3.1-3.7 4.3 0-0.2 0-0.4 0-0.7 0-2.3 0.3-4.5 1.9-5.9zm31.6 4.2c0-3.7-1.5-5.5-4.5-5.5-2.9 0-4.8 1.9-6.3 4.4v-10.4h-8v0.1l1.6 1.1v19.9l-1.6 1.1v0.2h9.6v-0.2l-1.6-1.1v-10.1c1-1.2 1.9-1.9 3-1.9 1 0 1.4 0.6 1.4 2.2v9.8l-1.6 1.1v0.2h9.6v-0.2l-1.6-1.1zm14.1 7.3c-2.3 0-4.5-1.7-5-4.6h9c0-5.7-3.4-8.1-7.3-8.1-5.6 0-8.5 3.8-8.5 8.4 0 5.1 3.6 8.2 8.4 8.2 4.6 0 6.6-3.1 7.3-5.6l-0.1-0.1c-1.1 1.2-2.5 1.8-3.8 1.8zm-3.3-12.1c0.8 0 1.8 0.5 1.8 6.5v0.3h-3.5c-0.1-0.2-0.1-0.3-0.1-0.5 0-4.1 0.6-6.3 1.8-6.3zm17.9 15.7v-0.2l-1.6-1.1v-21.1h-8.1v0.1l1.6 1.1v19.9l-1.6 1.1v0.2zm10.8 0.3c5.5 0 9.1-4.2 9.1-9.4 0-4.4-2.7-7.2-6.4-7.2-1.8 0-3.4 0.6-4.7 1.8v-1.5h-8.1v0.1l1.6 1.1v19.3l-1.6 1.1v0.1h10.3v-0.1l-2.2-1.1v-4.4c0.7 0.1 1.3 0.2 2 0.2zm-1.6-14c2.1 0 3.8 2.8 3.8 7.3 0 3.4-1 6.3-2.8 6.3-0.4 0-0.9-0.2-1.4-0.7v-12.8c0.1-0.1 0.3-0.1 0.4-0.1zm23.6 10.1c-2.2 0-4.5-1.7-4.9-4.6h9c0-5.7-3.4-8.1-7.3-8.1-5.7 0-8.5 3.8-8.5 8.4 0 5.1 3.6 8.2 8.3 8.2 4.6 0 6.6-3.1 7.3-5.6l-0.1-0.1c-1.1 1.2-2.4 1.8-3.8 1.8zm-3.2-12.1c0.7 0 1.7 0.5 1.7 6.5v0.3h-3.5c0-0.2 0-0.3 0-0.5 0-4.1 0.5-6.3 1.8-6.3zm29 8.7c-1 1-2 2-3 3l1.7-7.9c0.5-2.7-0.4-4.4-2.4-4.4-3.2 0-6.4 3.6-9 10.4h-0.4l2.1-10.1h-8.3v0.1l1.6 1.1-3.1 14.8h6.4c2.3-6.9 4.8-11.8 6.1-11.8 0.4 0 0.5 0.3 0.4 0.8l-2 9.1c-0.3 1.5 0.1 2.2 1 2.2 3 0 6.6-3.6 9.2-6.9zm8.7-15.7c-1.1 0-2.5 0.2-4.5 1.7l-1.8-2.4h-0.1l-1.3 6.4h0.1c2.6-3.1 4-4.1 5-4.1 0.8 0 1.2 0.5 1.2 1.3 0 2-4.7 3.8-4.7 7.5 0 2 1.6 3.1 4.3 4.5l0.3-0.5c-0.9-0.5-1.3-0.8-1.3-1.2 0-1.9 6.6-3.9 6.6-9 0-3-1.9-4.2-3.8-4.2zm-2.8 16.4c-1.8 0-3.3 1.3-3.3 3.3 0 2 1.5 3.3 3.3 3.3 1.8 0 3.3-1.3 3.3-3.3 0-2-1.5-3.3-3.3-3.3z"/>
</svg>