<svg version="1.2" xmlns="http://www.w3.org/2000/svg" viewBox="0 0 600 300" width="600" height="300">
	<title>Novo Projeto</title>
	<style>
		.s0 { fill: #ffffff } 
	</style>
	<path id="yardım " class="s0" aria-label="hulp"  d="m160.1 139.5c0-14.5-6.1-21.3-17.7-21.3-11.3 0.1-18.9 7.4-24.5 17.2v-40.9h-31.5v0.6l6.2 4.3v77.7l-6.2 4.3v0.6h37.7v-0.6l-6.2-4.3v-39.6c3.7-4.6 7.4-7.3 11.5-7.3 4.1 0 5.5 2.3 5.5 8.5v38.4l-6.3 4.3v0.6h37.8v-0.6l-6.3-4.3zm89.8 15.3c-3.8 3.8-7.6 7.6-11.4 11.5l9.9-46.8h-25.3c-8.8 26.8-18.7 46.1-23.5 46.1-1.6 0-2-1.1-1.6-3.1l9.3-43h-32.5l-0.2 0.6 6.4 4.3-8.7 41.6c-2.3 10.5 1.3 17.3 9.1 17.3 12.7 0 25-14.2 35.4-40.8h1.5l-6.9 32.1c-1.3 5.9 0.2 8.7 4 8.7 11.6 0 25.7-14.3 36-26.9zm40.7 27.2v-0.6l-6.2-4.2v-82.7h-31.5v0.7l6.2 4.2v77.8l-6.2 4.2v0.6zm42.2 1.3c21.5 0 35.4-16.5 35.4-36.6 0-17.5-10.4-28.4-25-28.4-7 0-13 2.5-18.4 7.2v-6h-31.5v0.7l6.3 4.2v75.3l-6.3 4.2v0.6h40.2v-0.6l-8.7-4.2v-17.2c2.8 0.5 5.4 0.8 8 0.8zm-6.1-54.9c7.9 0 14.8 11.3 14.8 28.8-0.1 13.1-3.9 24.3-11.2 24.3-1.6 0-3.4-0.6-5.5-2.5v-50.2c0.6-0.3 1.3-0.4 1.9-0.4z"/>
</svg>