<svg version="1.2" xmlns="http://www.w3.org/2000/svg" viewBox="0 0 400 300" width="400" height="300">
	<title>Novo Projeto</title>
	<style>
		.s0 { fill: #ffffff } 
	</style>
	<path id="Como podemos ajudar?        " class="s0" aria-label="Como podemos ajudar? 






"  d="m20.8 142.7c-0.9 0-2.3-2.7-2.3-11.6 0-8.9 1.4-11.6 2.3-11.6 0.9 0 2.8 1.8 9.4 9h0.2l-1.6-10.3h-0.1l-2.1 2.7c-2.3-1.4-3.9-2-5.8-2-6.3 0-11 5.1-11 12.2 0 7.1 4.7 12.2 11 12.2 1.8 0 3.5-0.6 5.8-2l2.1 2.7h0.1l1.6-10.3h-0.2c-6.6 7.2-8.5 9-9.4 9zm18.7 0.6c6 0 11.2-4.8 11.2-10.6 0-4.1-3.1-7-7.9-7-6.1 0-11.2 4.8-11.2 10.6 0 4.2 3.1 7 7.9 7zm-0.2-0.5c-0.7 0-1.2-1.2-1.2-3.1 0-3.6 2.6-13.5 4.7-13.5 0.7 0 1.1 1.1 1.1 2.8 0 3.2-2.3 13.8-4.6 13.8zm42.8-11.4c0-3.9-1.7-5.7-4.8-5.7-2.9 0-4.8 1.7-6.4 4-0.4-2.7-2-4-4.6-4-2.8 0-4.7 1.6-6.2 3.8v-3.5h-8.6v0.2l1.7 1.1v14.4l-1.7 1.1v0.2h10.3v-0.2l-1.7-1.1v-11.3c0.8-1 1.7-1.5 2.6-1.5 1.1 0 1.5 0.6 1.5 2.3v10.5l-1.7 1.1v0.2h10.3v-0.2l-1.7-1.1v-10.3c0-0.3 0-0.7-0.1-1 0.9-1 1.8-1.5 2.7-1.5 1.2 0 1.5 0.6 1.5 2.3v10.5l-1.7 1.1v0.2h10.3v-0.2l-1.7-1.1zm12.1 11.9c5.6 0 9.7-3.8 9.7-8.9 0-5.1-4.1-8.8-9.7-8.8-5.6 0-9.7 3.7-9.7 8.8 0 5.1 4.1 8.9 9.7 8.9zm0-0.5c-1.5 0-2.4-3.3-2.4-8.4 0-5 0.9-8.3 2.4-8.3 1.5 0 2.5 3.3 2.5 8.3 0 5.1-1 8.4-2.5 8.4zm27.7 0.5c5.9 0 9.6-4.5 9.6-10 0-4.7-2.8-7.7-6.8-7.7-1.9 0-3.5 0.7-5 2v-1.7h-8.5v0.2l1.7 1.2v20.4l-1.7 1.2v0.2h10.9v-0.2l-2.4-1.2v-4.6c0.8 0.1 1.5 0.2 2.2 0.2zm-1.7-15c2.2 0 4.1 3.1 4.1 7.9 0 3.5-1.1 6.6-3.1 6.6-0.4 0-0.9-0.2-1.5-0.7v-13.6c0.2-0.1 0.4-0.2 0.5-0.2zm22.3 15c5.7 0 9.7-3.8 9.7-8.9 0-5.1-4-8.8-9.7-8.8-5.6 0-9.7 3.7-9.7 8.8 0 5.1 4.1 8.9 9.7 8.9zm0-0.5c-1.5 0-2.4-3.3-2.4-8.4 0-5 0.9-8.3 2.4-8.3 1.5 0 2.5 3.3 2.5 8.3 0 5.1-1 8.4-2.5 8.4zm32.6-23.7h-8.8l-0.1 0.2 1.8 1.2-1.1 5.1h-0.2c-7.3 0-13.9 6.2-13.9 13.6 0 2.1 1.2 4.1 3.7 4.1 2.4 0 5-1.2 8.2-9.2h0.4l-1.5 6.8c-0.3 1.6 0.1 2.4 1.1 2.4 3.1 0 7-3.9 9.8-7.3l-0.4-0.5c-1.1 1.1-2.1 2.1-3.1 3.2zm-14.7 19.8c-0.5 0-0.8-0.3-0.8-1.1 0-3.3 2.1-9.3 5.1-11.7 0.7 0.3 1.2 0.6 1.7 1-3.1 10.7-5.4 11.8-6 11.8zm27.2 0.1c-2.4 0-4.8-1.7-5.2-4.9h9.5c0-6-3.6-8.6-7.7-8.6-6.1 0-9.1 4.1-9.1 8.9 0 5.5 3.8 8.8 8.9 8.8 4.9 0 7-3.3 7.7-6h-0.1c-1.1 1.2-2.6 1.8-4 1.8zm-3.5-12.8c0.8 0 1.9 0.5 1.9 6.9v0.3h-3.7c0-0.2 0-0.3 0-0.5 0-4.3 0.5-6.7 1.8-6.7zm39.4 5.1c0-4-1.7-5.8-4.9-5.8-2.8 0-4.8 1.7-6.3 4.1-0.4-2.8-2-4.1-4.7-4.1-2.7 0-4.7 1.6-6.2 3.9v-3.5h-8.5v0.1l1.7 1.2v14.3l-1.7 1.2v0.2h10.2v-0.2l-1.7-1.2v-11.3c0.9-0.9 1.7-1.4 2.7-1.4 1.1 0 1.5 0.6 1.5 2.3v10.4l-1.7 1.2v0.2h10.2v-0.2l-1.7-1.2v-10.2c0-0.4 0-0.7 0-1.1 0.9-0.9 1.7-1.4 2.7-1.4 1.1 0 1.5 0.6 1.5 2.3v10.4l-1.7 1.2v0.2h10.3v-0.2l-1.7-1.2zm12.1 11.9c5.6 0 9.7-3.7 9.7-8.8 0-5.1-4.1-8.9-9.7-8.9-5.7 0-9.8 3.8-9.8 8.9 0 5.1 4.1 8.8 9.8 8.8zm0-0.5c-1.5 0-2.5-3.2-2.5-8.3 0-5.1 1-8.3 2.5-8.3 1.5 0 2.4 3.2 2.4 8.3 0 5.1-0.9 8.3-2.4 8.3zm16-15.7c0-0.6 0.4-1 1.2-1 1.5 0 4.3 2.3 7.6 6.1h0.2l-1-7.2h-0.2l-1.9 1.8c-1.6-0.7-3.3-1.1-4.8-1.1-3.3 0-6.1 1.8-6.1 5.4 0 6.6 9.5 6.5 9.5 10.4 0 0.8-0.5 1.3-1.4 1.3-1.6 0-3.8-1.4-7.6-6h-0.2l1 7.2h0.2l2-1.8c1.6 0.7 3.3 1.1 4.9 1.1 3.6 0 6.5-1.9 6.5-5.4 0-6.4-9.9-6.5-9.9-10.8zm34.1 4c0-3.4-2-5.5-5.3-5.5-2.4 0-4.6 1.2-6.1 2.2l-3-2.8h-0.1l-1.1 7.2h0.2c2.5-3 5-4.7 6.7-4.7 1.4 0 2.3 1.2 2.3 3.9v1.1c-8.7 2.2-10.8 4.6-10.8 7.3 0 2 1.7 3.5 4.4 3.5 2.5 0 4.9-1.7 6.4-3.9v3.6h8.1v-0.2l-1.7-1.1zm-8.4 8.5c-1 0-1.9-0.7-1.9-1.9 0-2.2 1.4-3.4 3.9-4.7v5.8c-0.7 0.6-1.3 0.8-2 0.8zm15.9-15.5c2.1 0 3.7-1.5 3.7-3.5 0-2.1-1.6-3.7-3.7-3.7-2.1 0-3.7 1.6-3.7 3.7 0 2 1.6 3.5 3.7 3.5zm-6 25.4c3.8-0.9 9.4-5.4 9.4-12.1v-11.4h-8.6v0.2l1.7 1.1v13.5c0 4.4-0.3 7-2.6 8.4zm30.9-23.4h-8.5v0.2l1.7 1.1v11.2c-0.9 1-1.8 1.6-2.8 1.6-1.2 0-1.5-0.6-1.5-2.3v-11.8h-8.6v0.2l1.7 1.1v10.2c0 4 1.7 5.8 4.8 5.8 2.9 0 4.9-1.7 6.4-4.1v3.8h8.5v-0.2l-1.7-1.1zm21.3-6.8h-8.6v0.1l1.7 1.2v5.3c-0.8-0.1-1.5-0.2-2.2-0.2-5.8 0-9.6 4.5-9.6 10 0 4.7 2.8 7.7 6.8 7.7 1.9 0 3.5-0.7 5-2v1.7h8.6v-0.2l-1.7-1.2zm-7.4 21.4c-2.2 0-4-3-4-7.8 0-3.6 1-6.6 3-6.6 0.4 0 0.9 0.1 1.5 0.7v13.6c-0.2 0.1-0.3 0.1-0.5 0.1zm30.6-5c-1 1.1-2.1 2.1-3.1 3.2l2.7-13.1h-0.1l-3.7 0.4c-1.1-0.3-2.1-0.4-3.2-0.4-7.2 0-13.9 6.2-13.9 13.6 0 2.1 1.2 4.1 3.7 4.1 2.4 0 5-1.2 8.2-9.2h0.4l-1.5 6.8c-0.3 1.6 0.1 2.4 1.1 2.4 3.2 0 7-3.9 9.8-7.3zm-13.7 3.4c-0.4 0-0.7-0.3-0.7-1.1 0-3.3 2.1-9.3 5.1-11.7 0.6 0.3 1.1 0.6 1.7 1.1-3.1 10.6-5.4 11.7-6.1 11.7zm29.3-12.7c-0.9-0.4-1.7-0.6-2.4-0.6-1.9 0-2.7 1.8-3.8 4.7v-4.4h-8.6v0.1l1.7 1.2v14.4l-1.7 1.1v0.2h11v-0.2l-2.4-1.1v-10.3c0.9-0.9 1.7-1.3 2.7-1.3 0.9 0 2.5 0.9 4.1 2.5zm9.2-7.5c-1.2 0-2.6 0.3-4.8 1.9l-1.9-2.6h-0.1l-1.4 6.8h0.1c2.8-3.3 4.2-4.3 5.4-4.3 0.8 0 1.2 0.5 1.2 1.3 0 2.1-5 4-5 8 0 2.1 1.7 3.3 4.6 4.7l0.3-0.5c-1-0.5-1.4-0.8-1.4-1.3 0-1.9 7.1-4 7.1-9.5 0-3.1-2.1-4.5-4.1-4.5zm-3 17.5c-1.9 0-3.5 1.4-3.5 3.5 0 2.1 1.6 3.4 3.5 3.4 1.9 0 3.5-1.3 3.5-3.4 0-2.1-1.6-3.5-3.5-3.5z"/>
</svg>