<svg version="1.2" xmlns="http://www.w3.org/2000/svg" viewBox="0 0 600 300" width="600" height="300">
	<title>Novo Projeto</title>
	<style>
		.s0 { fill: #ffffff } 
	</style>
	<path id="ajuda" class="s0" aria-label="ajuda"  d="m189.8 142.1c-0.1-12.5-7.6-19.8-19.6-19.8-8.8 0-16.8 4.2-22.6 7.8l-10.7-10.3h-0.7l-3.8 26.6 0.6 0.1c9.4-11 18.4-17.5 24.6-17.5 5.1 0 8.4 4.4 8.4 14.4v4c-31.9 8.2-39.4 17.1-39.4 26.9 0 7.2 6.1 13 16 13 9.1 0 17.9-6.4 23.4-14.3v13h30v-0.6l-6.3-4.3zm-31 31.5c-3.7 0-6.7-2.5-6.7-7.2 0-7.9 5.1-12.4 14-17.3v21.4c-2.5 2.4-4.6 3.1-7.3 3.1zm58.7-57c7.7 0 13.3-5.5 13.3-13 0-7.7-5.6-13.3-13.3-13.3-7.9 0-13.7 5.6-13.7 13.3 0 7.5 5.8 13 13.7 13zm-22.3 93.2c14-3.2 34.6-19.7 34.6-44.3v-42h-31.5v0.6l6.3 4.3v49.6c0 16.1-1.3 25.5-9.6 31zm113.7-86.3h-31.5v0.7l6.3 4.2v41c-3.4 3.8-6.7 5.9-10.4 5.9-4.1 0-5.5-2.3-5.5-8.5v-43.3h-31.5v0.7l6.2 4.2v37.6c0 14.5 6.2 21.3 17.8 21.3 10.5 0 17.9-6.4 23.4-15.1v13.8h31.5v-0.6l-6.3-4.2zm78-25h-31.5v0.6l6.3 4.2v19.7c-2.8-0.5-5.4-0.8-8-0.8-21.5 0-35.4 16.5-35.4 36.6 0 17.5 10.4 28.4 25 28.4 7 0 13-2.5 18.4-7.2v6h31.5v-0.7l-6.3-4.2zm-27.1 78.6c-7.9 0-14.8-11.2-14.8-28.7 0-13.2 3.9-24.4 11.2-24.4 1.6 0 3.3 0.6 5.5 2.5v50.3c-0.7 0.2-1.3 0.3-1.9 0.3zm112.5-18.3c-3.8 3.8-7.6 7.6-11.4 11.5l10.1-48h-0.6l-13.6 1.5c-3.9-1-7.8-1.5-11.6-1.5-26.7 0-51.3 22.8-51.3 50 0 7.6 4.5 15 13.6 15 9 0 18.5-4.4 30.4-33.8h1.3l-5.4 25.1c-1.3 5.9 0.2 8.6 4 8.6 11.6 0 25.7-14.2 36-26.8zm-50.3 12.7c-1.6 0-2.6-1.2-2.6-4.1 0-12.1 7.5-34.1 18.8-43 2.2 1 4.1 2.2 6.1 3.9-11.4 39.2-19.8 43.2-22.3 43.2z"/>
</svg>