<svg version="1.2" xmlns="http://www.w3.org/2000/svg" viewBox="0 0 400 300" width="400" height="300">
	<title>Novo Projeto</title>
	<style>
		.s0 { fill: #ffffff } 
	</style>
	<path id="Come possiamo aiutarvi? " class="s0" aria-label="Nasıl yardımcı olabiliriz? "  d="m22.6 122.8l3.8 1v8l-7.5-9.2h-12.1v0.2l3.5 1v20l-3.5 1v0.2h8v-0.2l-3.8-1v-19l15.7 20.5h0.4v-21.5l3.5-1v-0.2h-8zm27.4 15.3c-1 1-2 1.9-2.9 2.9l2.6-12.3h-0.2l-3.5 0.4c-1-0.3-2-0.4-3-0.4-6.8 0-13.1 5.9-13.1 12.8 0 2 1.2 3.9 3.5 3.9 2.3 0 4.7-1.2 7.8-8.7h0.3l-1.4 6.5c-0.3 1.5 0.1 2.2 1 2.2 3 0 6.6-3.7 9.3-6.9zm-12.9 3.2c-0.4 0-0.7-0.3-0.7-1 0-3.1 1.9-8.7 4.8-11 0.6 0.2 1.1 0.6 1.6 1-2.9 10-5.1 11-5.7 11zm18.7-11.2c0-0.6 0.3-0.9 1-0.9 1.5 0 4.1 2.1 7.3 5.7h0.1l-1-6.8h-0.1l-1.8 1.8c-1.5-0.8-3.1-1.1-4.5-1.1-3.2 0-5.7 1.7-5.7 5 0 6.3 8.9 6.2 8.9 9.8 0 0.8-0.5 1.3-1.3 1.3-1.5 0-3.7-1.3-7.2-5.7h-0.2l1 6.8h0.2l1.8-1.7c1.6 0.7 3.2 1 4.7 1 3.3 0 6.1-1.7 6.1-5 0-6.1-9.3-6.2-9.3-10.2zm19.9 15v-0.2l-1.6-1.1v-14.7h-8.1v0.1l1.6 1.1v13.5l-1.6 1.1v0.2zm10.4 0v-0.2l-1.6-1.1v-21.1h-8.1v0.1l1.6 1.1v19.9l-1.6 1.1v0.2zm17.2-15.9l3 1.1-2.9 6.8-3.5-6.8 1.4-1.1v-0.1h-10v0.1l1.5 1.1 7.2 14.5-4.4 5.9v0.1h2.7l8.7-20.5 2.1-1.1v-0.1h-5.8zm20.7 4.6c0-3.2-1.9-5.1-5-5.1-2.3 0-4.3 1.1-5.8 2l-2.8-2.7h-0.1l-1 6.9h0.2c2.4-2.8 4.7-4.5 6.3-4.5 1.3 0 2.1 1.1 2.1 3.7v1c-8.2 2.1-10.1 4.4-10.1 6.9 0 1.8 1.6 3.3 4.1 3.3 2.4 0 4.6-1.6 6-3.6v3.3h7.7v-0.2l-1.6-1.1zm-8 8.1c-0.9 0-1.7-0.6-1.7-1.8 0-2.1 1.3-3.2 3.6-4.5v5.5c-0.6 0.6-1.2 0.8-1.9 0.8zm24-12.5c-0.8-0.4-1.5-0.6-2.2-0.6-1.8 0-2.6 1.8-3.5 4.5v-4.2h-8.1v0.1l1.6 1.1v13.5l-1.6 1.1v0.2h10.3v-0.2l-2.2-1.1v-9.6c0.8-0.8 1.5-1.2 2.5-1.2 0.9 0 2.3 0.8 3.9 2.3zm21.8-6.7h-8.3l-0.1 0.2 1.7 1-1.1 4.9h-0.2c-6.8 0-13.1 5.8-13.1 12.8 0 1.9 1.2 3.8 3.5 3.8 2.3 0 4.7-1.1 7.8-8.6h0.3l-1.4 6.4c-0.3 1.5 0.1 2.2 1.1 2.2 2.9 0 6.5-3.6 9.2-6.9l-0.4-0.4c-1 1-2 2-2.9 3zm-13.9 18.7c-0.4 0-0.7-0.4-0.7-1.1 0-3.1 2-8.7 4.8-11 0.6 0.2 1.1 0.6 1.6 1-2.9 10-5 11.1-5.7 11.1zm23.3 3.7v-0.2l-1.6-1.1v-14.7h-8v0.1l1.6 1.1v13.5l-1.6 1.1v0.2zm29.5-10.9c0-3.7-1.5-5.5-4.5-5.5-2.7 0-4.5 1.7-6 3.9-0.4-2.6-1.9-3.9-4.4-3.9-2.6 0-4.4 1.6-5.8 3.7v-3.3h-8.1v0.1l1.6 1.1v13.5l-1.6 1.1v0.2h9.7v-0.2l-1.6-1.1v-10.6c0.8-0.9 1.6-1.4 2.5-1.4 1 0 1.4 0.6 1.4 2.2v9.8l-1.6 1.1v0.2h9.7v-0.2l-1.6-1.1v-9.6c0-0.4 0-0.7-0.1-1 0.8-0.9 1.7-1.4 2.5-1.4 1.1 0 1.5 0.6 1.5 2.2v9.8l-1.6 1.1v0.2h9.6v-0.2l-1.6-1.1zm17.1 5.8c-0.6 0.8-1.6 1.5-2.8 1.5-3 0-5.7-2.7-5.7-7.6 0-3.2 1.1-4.5 2-4.5 0.9 0 2 1.1 5.7 5.6h0.2l-1-6.9h-0.2l-1.4 1.4c-1.2-0.5-2.4-0.7-3.5-0.7-4.8 0-8.1 3.5-8.1 8.4 0 5 3.5 8.2 8.2 8.2 3.2 0 6-2.3 6.8-5.4zm10.2 5.1v-0.1l-1.6-1.1v-14.8h-8v0.2l1.6 1.1v13.5l-1.6 1.1v0.1zm15.9 0.4c5.4 0 9.2-3.6 9.2-8.4 0-4.8-3.8-8.3-9.2-8.3-5.3 0-9.1 3.5-9.1 8.3 0 4.8 3.8 8.4 9.1 8.4zm0-0.5c-1.4 0-2.3-3.1-2.3-7.9 0-4.7 0.9-7.8 2.3-7.8 1.5 0 2.3 3.1 2.3 7.8 0 4.8-0.8 7.9-2.3 7.9zm20.9-22.3h-8.3v0.2l1.6 1.1-4.1 19.2c-0.3 1.5 0.1 2.3 1 2.3 3 0 6.6-3.7 9.2-6.9l-0.4-0.4c-0.9 0.9-1.9 1.9-2.9 2.9zm15.8 11.2c0-3.2-1.9-5.1-5-5.1-2.3 0-4.3 1.1-5.8 2l-2.8-2.7h-0.1l-1 6.9h0.2c2.4-2.8 4.7-4.5 6.3-4.5 1.3 0 2.1 1.1 2.1 3.7v1c-8.2 2.1-10.1 4.4-10.1 6.9 0 1.8 1.6 3.3 4.1 3.3 2.4 0 4.6-1.6 6-3.6v3.3h7.7v-0.2l-1.6-1zm-8 8c-0.9 0-1.7-0.6-1.7-1.8 0-2.1 1.3-3.2 3.6-4.5v5.5c-0.6 0.6-1.2 0.8-1.9 0.8zm22.6-13.1c-1.8 0-3.3 0.6-4.7 1.8v-7.9h-7.9v0.1l1.4 1.1v21.5h0.2l4.6-0.6c1.3 0.4 2.6 0.6 3.7 0.6 5.6 0 9.1-4.2 9.1-9.4 0-4.5-2.7-7.2-6.4-7.2zm-3.3 16.2c-0.4 0-0.9-0.2-1.4-0.7v-12.8c0.2-0.1 0.3-0.1 0.5-0.1 2 0 3.8 2.8 3.8 7.3 0 3.4-1 6.3-2.9 6.3zm15.4-17.7c2 0 3.5-1.4 3.5-3.3 0-2-1.5-3.4-3.5-3.4-2 0-3.5 1.4-3.5 3.4 0 1.9 1.5 3.3 3.5 3.3zm4.8 17.8v-0.2l-1.6-1.1v-14.7h-8v0.1l1.6 1.1v13.5l-1.6 1.1v0.2zm10.3 0v-0.2l-1.6-1.1v-21.1h-8v0.1l1.6 1.1v19.9l-1.6 1.1v0.2zm5.6-17.8c2 0 3.4-1.4 3.4-3.3 0-2-1.4-3.4-3.4-3.4-2 0-3.5 1.4-3.5 3.4 0 1.9 1.5 3.3 3.5 3.3zm4.8 17.8v-0.2l-1.6-1.1v-14.7h-8.1v0.1l1.6 1.1v13.5l-1.6 1.1v0.2zm14.6-15.7c-0.8-0.4-1.6-0.6-2.2-0.6-1.8 0-2.6 1.8-3.6 4.5v-4.2h-8.1v0.1l1.6 1.1v13.5l-1.6 1.1v0.2h10.3v-0.2l-2.2-1.1v-9.6c0.8-0.8 1.6-1.2 2.5-1.2 0.9 0 2.4 0.8 3.9 2.3zm8.9-2.1c2 0 3.4-1.4 3.4-3.3 0-2-1.4-3.4-3.4-3.4-2 0-3.5 1.4-3.5 3.4 0 1.9 1.5 3.3 3.5 3.3zm2.2 1.8h-8.3v0.2l1.6 1.1-2.8 12.8c-0.3 1.5 0.1 2.2 1.1 2.2 2.9 0 6.6-3.6 9.2-6.9l-0.4-0.4c-1 1-2 2-2.9 3zm16.8 0h-10.4l-3.6-0.8h-0.2l-1 6.7h0.2l5.5-5.3h2.3l-8.8 15.3v0.1h11.6l3.1 0.6h0.1l1-7.3h-0.2l-5.5 6h-2.8l8.7-15.3zm8.3-6.7c-1.2 0-2.5 0.3-4.5 1.7l-1.8-2.3h-0.1l-1.4 6.3h0.1c2.7-3.1 4.1-4 5.1-4 0.8 0 1.2 0.4 1.2 1.2 0 2-4.7 3.8-4.7 7.6 0 1.9 1.6 3.1 4.3 4.4l0.2-0.5c-0.8-0.5-1.2-0.7-1.2-1.2 0-1.9 6.6-3.8 6.6-9 0-2.9-1.9-4.2-3.8-4.2zm-2.8 16.4c-1.8 0-3.4 1.3-3.4 3.4 0 1.9 1.6 3.2 3.4 3.2 1.8 0 3.3-1.3 3.3-3.2 0-2.1-1.5-3.4-3.3-3.4z"/>
</svg>