<svg version="1.2" xmlns="http://www.w3.org/2000/svg" viewBox="0 0 600 300" width="600" height="300">
	<title>Novo Projeto</title>
	<style>
		.s0 { fill: #ffffff } 
	</style>
	<path id="yardım " class="s0" aria-label="yardım "  d="m130.3 120.1l11.6 4.3-11.4 26.5-13.5-26.5 5.5-4.3v-0.6h-39.3v0.6l5.9 4.2 28.1 56.8-17 22.8v0.6h10.3l34-80.1 8.5-4.3v-0.6h-22.8zm98.5 34.6c-3.7 3.9-7.6 7.7-11.3 11.5l10.1-48h-0.6l-13.7 1.5c-3.8-1-7.7-1.5-11.6-1.5-26.6 0-51.2 22.9-51.2 50 0 7.7 4.5 15 13.6 15 9 0 18.5-4.3 30.4-33.7h1.2l-5.4 25.1c-1.2 5.9 0.3 8.6 4 8.6 11.7 0 25.8-14.2 36-26.8zm-50.2 12.7c-1.6 0-2.6-1.2-2.6-4.1 0-12.1 7.5-34.1 18.7-43 2.3 1 4.1 2.2 6.1 3.9-11.3 39.2-19.7 43.2-22.2 43.2zm107.5-46.9c-3.3-1.5-6.1-2.2-8.8-2.2-6.8 0-10 6.8-13.8 17.5v-16.4h-31.5v0.6l6.2 4.3v52.7l-6.2 4.3v0.6h40.1v-0.6l-8.6-4.3v-37.6c3.1-3.3 6.1-4.8 9.7-4.8 3.6 0 9.3 3.3 15.3 9h0.1zm73.1-26.1h-31.5v0.6l6.3 4.3v19.6c-2.8-0.5-5.4-0.7-8-0.7-21.5 0-35.4 16.5-35.4 36.6 0 17.5 10.4 28.4 25 28.4 7 0 13-2.5 18.4-7.3v6h31.5v-0.6l-6.3-4.3zm-27.1 78.7c-7.9 0-14.8-11.3-14.8-28.8 0.1-13.1 3.9-24.4 11.2-24.4 1.6 0 3.4 0.7 5.5 2.5v50.3c-0.6 0.2-1.3 0.4-1.9 0.4zm73.8 8.8v-0.6l-6.3-4.2v-57.7h-31.5v0.7l6.3 4.2v52.8l-6.3 4.2v0.7zm125-27.3c-3.7 3.9-7.6 7.6-11.4 11.5l6.4-30.8c2.3-10.4-1.4-17.2-9.1-17.2-12.8 0-25 14.1-35.4 40.8h-1.5l5-23.5c2.3-10.5-1.4-17.3-9.1-17.3-12.8 0-25 14.1-35.4 40.8h-1.5l8.4-39.5h-32.5l-0.2 0.6 6.4 4.2-12.2 57.7h25.2c8.9-26.8 18.8-46.2 23.5-46.2 1.6 0 2 1.2 1.6 3.2l-9.1 43h25c8.9-26.8 18.8-46.2 23.5-46.2 1.6 0 2 1.2 1.6 3.2l-7.7 35.6c-1.3 5.9 0.2 8.6 4 8.6 11.6 0 25.8-14.2 36-26.9z"/>
</svg>